# xmcd
#
# Track frame offsets:
#	150
#	15730
#	36573
#	51235
#	65625
#	79030
#	99875
#	114988
#	131045
#	143212
#	163122
#	178069
#	196094
#	211166
#
# Disc length: 2984 seconds
#
# Revision: 1
# Processed by: cddbd v1.5.1PL0 Copyright (c) Steve Scherf et al.
# Submitted via: audiograbber 1.83.01
#
DISCID=c30ba60e
DTITLE=Tresa Street - Ain't Nothin' Changed
DYEAR=2001
DGENRE=Country
TTITLE0=Lie to Me
TTITLE1=Naturally
TTITLE2=WIld About You
TTITLE3=Nobody's anAngel
TTITLE4=Rockin' a Baby
TTITLE5=I Believe I Can Fly
TTITLE6=Let's Go Dancing
TTITLE7=I Can Count on You
TTITLE8=Ain't Nothin' Changed
TTITLE9=When He Leaves You
TTITLE10=That's My Final Answer
TTITLE11=Love Letters
TTITLE12=Somebody Will
TTITLE13=I Wish
EXTD=2001 CD AMI 1525-2
EXTT0=
EXTT1=
EXTT2=
EXTT3=
EXTT4=
EXTT5=
EXTT6=
EXTT7=
EXTT8=
EXTT9=
EXTT10=
EXTT11=
EXTT12=
EXTT13=
PLAYORDER=
